PathFileType	4	(X/Y/Z)	7_coords_data.trc
DataRate	CameraRate	NumFrames	NumMarkers	Units	OrigDataRate	OrigDataStartFrame	OrigNumFrames
30.0	30.0	5	21	m	30.0	44	86
Frame#	Time	THUMB_TIP	THUMB_IP	THUMB_MCP	THUMB_CMC	INDEX_TIP	INDEX_DIP	INDEX_PIP	INDEX_MCP	MIDDLE_TIP	MIDDLE_DIP	MIDDLE_PIP	MIDDLE_MCP	RING_TIP	RING_DIP	RING_PIP	RING_MCP	PINKY_TIP	PINKY_DIP	PINKY_PIP	PINKY_MCP	WRIST
X1	Y1	Z1	X2	Y2	Z2	X3	Y3	Z3	X4	Y4	Z4	X5	Y5	Z5	X6	Y6	Z6	X7	Y7	Z7	X8	Y8	Z8	X9	Y9	Z9	X10	Y10	Z10	X11	Y11	Z11	X12	Y12	Z12	X13	Y13	Z13	X14	Y14	Z14	X15	Y15	Z15	X16	Y16	Z16	X17	Y17	Z17	X18	Y18	Z18	X19	Y19	Z19	X20	Y20	Z20	X21	Y21	Z21
43	1.4333333333333333	0.014856100082397461	0.03297560119628906	0.9444569702148438	0.02259709930419922	0.03556480026245117	0.9671119995117188	0.01970400047302246	0.0353401985168457	0.9943740234375	-0.002842550039291382	0.04392490005493164	1.009260009765625	0.028804500579833983	-0.07307759857177734	0.9363380126953125	0.027808900833129882	-0.054797401428222654	0.9495040283203126	0.0244773006439209	-0.03813100051879883	0.9622000122070312	0.014422100067138672	-0.009004690170288087	0.9834130249023437	0.02172319984436035	0.022586999893188478	0.96410302734375	0.01860110092163086	0.01279170036315918	0.9465029907226562	0.007302259922027588	-0.008923629760742187	0.9428410034179687	-0.011354499816894532	-0.012846099853515624	0.980052001953125	0.005972449779510498	0.03242010116577149	0.9554400024414063	-0.001218979954719543	0.01923769950866699	0.94297802734375	-0.016139299392700195	-0.001151579976081848	0.94047900390625	-0.029889400482177735	-0.002845789909362793	0.9734949951171875	-0.0653270034790039	-0.029105100631713867	0.9294130249023438	-0.05725949859619141	-0.015288599967956543	0.9408870239257813	-0.049982398986816404	-0.00424813985824585	0.9511079711914062	-0.03841759872436523	0.014049200057983399	0.9682670288085937	-0.030874300003051757	0.038866298675537106	1.0308199462890626
44	1.4666666666666666	0.015028599739074708	0.03460609817504883	0.9446329956054688	0.022892799377441406	0.0367489013671875	0.9672369995117187	0.019808799743652343	0.0361328010559082	0.9946820068359375	-0.002878469944000244	0.04464519882202148	1.0096199951171876	0.028887699127197266	-0.07171839904785156	0.93539697265625	0.02797719955444336	-0.05350559997558594	0.948666015625	0.024635000228881834	-0.03690909957885742	0.9613670043945313	0.014608499526977538	-0.008038800239562988	0.9829660034179688	0.021829200744628907	0.023830699920654296	0.9640859985351562	0.01883760070800781	0.014319999694824219	0.94656201171875	0.007518670082092285	-0.007371829986572266	0.9424039916992187	-0.011152199745178223	-0.011902299880981446	0.97972998046875	0.006305409908294678	0.033904098510742185	0.9560390014648438	-0.0009947230219841002	0.020931800842285155	0.9430349731445312	-0.01584280014038086	0.000578607022762298	0.9400640258789063	-0.029605100631713867	-0.001655400037765503	0.97297900390625	-0.06498419952392578	-0.027322200775146483	0.9285250244140625	-0.05693249893188477	-0.013647899627685547	0.940280029296875	-0.049758998870849606	-0.002834389925003051	0.9507050170898438	-0.03813510131835938	0.015282999992370606	0.9681019897460937	-0.030947599411010742	0.03930870056152344	1.03122998046875
45	1.5	0.015536899566650391	0.035691898345947264	0.9450050048828125	0.0231289005279541	0.03772159957885742	0.9674849853515625	0.019950899124145507	0.03690390014648438	0.9951339721679687	-0.002561589956283569	0.04499919891357422	1.0098499755859376	0.029368099212646485	-0.07045680236816407	0.93481298828125	0.02839520072937012	-0.05237960052490234	0.9482550048828124	0.025073200225830077	-0.03590959930419922	0.9612039794921875	0.014994199752807618	-0.007267879962921143	0.9828740234375	0.02219099998474121	0.02469650077819824	0.964614013671875	0.019188400268554687	0.015494500160217285	0.9469349975585938	0.007891310214996337	-0.006205649852752685	0.9424080200195313	-0.010711199760437011	-0.011193599700927735	0.979573974609375	0.006604469776153564	0.03492839813232422	0.9564500122070313	-0.000637993991374969	0.02212730026245117	0.9435050048828125	-0.01540530014038086	0.001704190015792846	0.9401519775390625	-0.02946660041809082	-0.0009474750161170961	0.9732999877929688	-0.06449629974365234	-0.0262450008392334	0.9282119750976563	-0.056511600494384764	-0.012662099838256837	0.9400900268554687	-0.04934429931640625	-0.001928629994392395	0.9506099853515625	-0.03778789901733398	0.016111400604248045	0.9681649780273438	-0.030642799377441406	0.03976150131225586	1.03147998046875
46	1.5333333333333334	0.015716899871826173	0.03651179885864258	0.94543798828125	0.023308500289916993	0.03839789962768555	0.9681710205078125	0.020332799911499024	0.03742530059814453	0.9953820190429687	-0.0023811900615692137	0.04558119964599609	1.0102100219726562	0.0296968994140625	-0.0693843994140625	0.9343469848632813	0.028693899154663086	-0.051472801208496094	0.9479949951171875	0.025365999221801758	-0.03515380096435547	0.9610960083007812	0.015286499977111817	-0.0067070798873901365	0.9831190185546875	0.022408300399780274	0.025477699279785156	0.9648280029296875	0.019453100204467774	0.01631279945373535	0.9471589965820313	0.008163619995117187	-0.0052817602157592776	0.9424940185546875	-0.010475199699401855	-0.01060099983215332	0.979739013671875	0.006760240077972412	0.035764801025390626	0.9567739868164062	-0.00031433400511741603	0.02305669975280762	0.9440159912109375	-0.015051799774169922	0.002621769905090332	0.9402620239257813	-0.029152299880981444	-0.00050900799036026	0.9733079833984375	-0.06398469924926758	-0.02541749954223633	0.9280050048828125	-0.056090999603271484	-0.011937100410461426	0.9400789794921875	-0.04899100112915039	-0.001296810030937194	0.9507689819335937	-0.03761410140991211	0.016668100357055664	0.9686900024414062	-0.030503400802612303	0.04004380035400391	1.0318800048828125
47	1.5666666666666667	0.015893099784851074	0.037292098999023436	0.9459030151367187	0.02360219955444336	0.039054100036621096	0.9685170288085938	0.020621599197387694	0.03764820098876953	0.9958170166015625	-0.002194979906082153	0.04561449813842773	1.0106199951171875	0.030309700012207032	-0.06835030364990234	0.9335819702148438	0.029165000915527345	-0.05055590057373047	0.947510009765625	0.02575589942932129	-0.034342300415039065	0.9607940063476562	0.015665300369262697	-0.00621003007888794	0.9830050048828125	0.022733800888061522	0.026106700897216797	0.96543701171875	0.01977869987487793	0.017281999588012697	0.9474569702148438	0.008595290184020997	-0.004415679931640625	0.9424429931640625	-0.010077799797058105	-0.01032859992980957	0.9790780029296875	0.0069640097618103025	0.03646929931640625	0.9574849853515625	-1.2316799722611e-05	0.023889299392700195	0.94414599609375	-0.014678500175476073	0.003566540002822876	0.9402930297851563	-0.02866620063781738	9.837689995765601e-05	0.9730330200195313	-0.06340729904174805	-0.0243435001373291	0.9273109741210938	-0.05557419967651367	-0.011018799781799317	0.9396209716796875	-0.048514400482177734	-0.000516969978809356	0.950489990234375	-0.03721989822387695	0.017162900924682617	0.968656982421875	-0.03041729927062988	0.039959999084472654	1.0320999755859375
